<svg xmlns="http://www.w3.org/2000/svg" viewBox="0 0 64 64">
  <!-- Favicon provisional: mancha de pintura roja con "e" blanca.
       Sustituir por el logotipo real del cliente cuando lo facilite. -->
  <path fill="#d2262b" d="M32 4c5 0 7 4 11 6s10 0 13 5-2 8-1 13 6 8 4 13-8 4-11 8-3 9-9 10-8-4-13-5-11 3-14-2 2-9 0-14-6-7-4-13 8-3 12-7 3-9 8-11c2-1 3-3 4-3z"/>
  <text x="32" y="43" text-anchor="middle" font-family="Arial, sans-serif" font-size="34" font-weight="800" fill="#ffffff">e</text>
</svg>
