<svg xmlns="http://www.w3.org/2000/svg" width="215.61" height="114.111"><rect id="backgroundrect" width="100%" height="100%" x="0" y="0" fill="none" stroke="none"/>
  
<g class="currentLayer" style=""><title>Layer 1</title><g id="Grupo_17" data-name="Grupo 17" class="selected" fill="#ffffff" fill-opacity="1">
    <g id="Grupo_1" data-name="Grupo 1" fill="#ffffff" fill-opacity="1">
      <path id="Trazado_1" data-name="Trazado 1" d="M97.24999542236327,7.851999176025387 a4.4,4.4 0 0 0 -2.064,0.20600000000000004 c-0.28400000000000014,0.28500000000000014 -0.47700000000000015,0.42800000000000016 -0.5,0.8260000000000003 c-0.3190000000000002,0.37200000000000016 -1.351,0.6740000000000006 -1.351,1.528 c0,0.36100000000000015 0.5780000000000003,0.5780000000000003 0.3390000000000003,1.375 c-0.126,0.41800000000000015 -0.49300000000000016,0.531 -0.6830000000000006,0.91 a11.892,11.892 0 0 0 -0.455,2.049 c-0.266,0.8150000000000003 -0.7580000000000003,1.213 -0.7580000000000003,2.067 c0,0.49300000000000016 0.6070000000000003,0.6070000000000003 0.6070000000000003,1.1 c0,0.3410000000000003 -0.3450000000000003,0.467 -0.535,0.7320000000000003 c-0.3410000000000003,0.47500000000000014 -0.1650000000000001,0.6390000000000003 -0.1650000000000001,1.227 c0,0.38000000000000017 0.3950000000000003,0.7250000000000003 0.6610000000000005,0.991 c-2.384,1.279 -1.284,1.4 -1.847,2.9610000000000003 c-1.11,3.073 -1.319,3.8 -2.229,6.965 c-0.171,0.6260000000000003 -0.506,1.6750000000000007 -0.6190000000000003,2.3 c-0.4,2.049 -1.558,3.374 -1.6,5.19 c0,1.8210000000000002 -0.7430000000000003,3.039 -0.7430000000000003,4.86 c0,0.6640000000000005 0.20900000000000007,0.7000000000000003 0.6640000000000005,1.154 s0.5,0.6280000000000003 0.976,1.064 a9.927,9.927 0 0 1 0.921,1.061 c0.47400000000000014,0.55 0.977,0.919 1.432,1.488 A1.994,1.994 0 0 0 91.26699542236327,48.93899917602539 c1.252,0 1.361,-1.5470000000000002 1.493,-2.8 c0,0 0.24800000000000008,-1.445 0.3860000000000002,-2.368 a12.639,12.639 0 0 0 0,-2.162 c0,-1.252 0.6760000000000006,-1.994 1.018,-3.208 c0.47400000000000014,-1.6500000000000006 0.36700000000000016,-2.425 0.7270000000000003,-4.094 a15,15 0 0 0 0.542,-2.21 c0,-0.266 0.5820000000000003,-0.8 0.6190000000000003,-1.063 c0.41300000000000014,-2.93 0.8790000000000003,-4.234 1.486,-6.965 a54.569,54.569 0 0 1 1.558,-5.468 a29.966,29.966 0 0 0 1.239,-8.193 C100.33399542236327,8.305999176025388 99.34999542236329,7.851999176025387 97.24999542236327,7.851999176025387 z" fill="#ffffff" fill-opacity="1"/>
      <circle id="Elipse_1" data-name="Elipse 1" cx="131.91599702835083" cy="62.10800218582153" r="4.861999988555908" transform="rotate(-13.281999588012695 127.05400085449219,57.246002197265575) " fill="#ffffff" fill-opacity="1"/>
    </g>
    <g id="Grupo_2" data-name="Grupo 2" fill="#ffffff" fill-opacity="1">
      <path id="Trazado_2" data-name="Trazado 2" d="M113.15299987792969,20.85500048828125 c2.143,-0.8160000000000003 3.579,-0.506 5.627,-1.5310000000000001 a27.209,27.209 0 0 0 3.4130000000000003,-2.339 a20.619,20.619 0 0 0 4.125,-3.516 c0.7050000000000003,-0.7660000000000003 1.3,-0.6830000000000006 1.758,-1.8210000000000002 c0,-0.6070000000000003 0.531,-1.379 0.531,-1.986 c0,-0.37900000000000017 0.30000000000000016,-0.8350000000000003 0.14900000000000008,-1.44 c0,-0.929 -0.794,-1.8170000000000002 -1.287,-2.595 c-1.119,-1.7640000000000002 -2.116,-1.967 -3.9,-3.048 c-1.063,-0.6450000000000004 -1.916,-0.6070000000000003 -2.959,-1.29 c-0.37900000000000017,-0.24600000000000008 -0.55,-0.6070000000000003 -1.005,-0.6070000000000003 H118.02799987792969 a7.182,7.182 0 0 1 -1.907,-0.2280000000000001 a13.98,13.98 0 0 0 -3.973,-0.455 c-1.252,0 -1.9540000000000002,0.15200000000000008 -3.206,0.15200000000000008 h-4.837 c-2.087,0 -2.7190000000000003,0.6070000000000003 -4.8,0.6070000000000003 c-0.7000000000000003,0 -1.5110000000000001,0.531 -2.213,0.531 c-1.4,0.455 -2.4290000000000003,0.014000000000000005 -3.662,0.772 c-0.38000000000000017,0.2270000000000001 -0.4,0.8350000000000003 -0.8540000000000003,0.8350000000000003 H90.31799987792968 c-0.7580000000000003,0 -1.089,0.6830000000000006 -1.84,0.6830000000000006 c-0.9,0 -0.7460000000000003,-0.3920000000000002 -3.869,0.531 a12.01,12.01 0 0 0 -3.959,1.138 c-0.3410000000000003,0.133 -0.6270000000000003,1 -1.007,1 h-1.8 c-1.157,0 -1.492,0.537 -2.592,0.9 a22.879,22.879 0 0 0 -3.6550000000000002,1.53 a3.977,3.977 0 0 0 -1.9100000000000001,1.8210000000000002 a5.515,5.515 0 0 0 -1.138,2.8840000000000003 c0,0.6450000000000004 0.455,0.9480000000000003 0.911,1.366 c0.6640000000000005,0.6070000000000003 0.91,1.46 1.8210000000000002,1.46 c0.43600000000000017,0 0.6450000000000004,-0.37900000000000017 0.91,-0.7000000000000003 c0.7580000000000003,-0.8910000000000003 2.048,-1.024 2.048,-2.2 c0,-1.252 1.328,-1.574 2.523,-1.972 c0.49300000000000016,-0.15200000000000008 0.9670000000000003,0.17 1.366,-0.15200000000000008 c0.531,-0.43600000000000017 0.47400000000000014,-1.366 1.176,-1.366 h1.574 c0.4,-0.6640000000000005 1.157,-0.41700000000000015 1.9,-0.6070000000000003 a32.126,32.126 0 0 1 4.42,-1.138 c2.561,-0.4 3.228,-1.018 5.788,-1.3 a13.388,13.388 0 0 1 3.731,-0.7590000000000003 c1.8290000000000002,-0.15500000000000008 2.813,-0.7590000000000003 4.634,-0.7590000000000003 c0.8720000000000003,0 1.346,0.15200000000000008 2.219,0.15200000000000008 c0.43600000000000017,0 0.6450000000000004,-0.37900000000000017 1.081,-0.37900000000000017 c0.91,0 1.7400000000000002,-0.2280000000000001 2.6510000000000002,-0.2280000000000001 c1.537,0 2.015,-0.37900000000000017 3.552,-0.37900000000000017 c2.068,0 3.224,0.531 5.292,0.531 H117.9279998779297 c1.005,0 1.441,0.6260000000000003 2.371,0.987 c1.271,0.49300000000000016 2.276,1.327 2.276,2.693 c0,0.43700000000000017 -0.4,0.6200000000000003 -0.7430000000000003,0.8860000000000003 a26.328,26.328 0 0 1 -4.552,3.49 c-0.7000000000000003,0.47500000000000014 -0.8530000000000003,1.1 -1.593,1.517 c-1.024,0.5880000000000003 -1.506,0.4440000000000002 -2.454,1.1640000000000001 a7.546,7.546 0 0 1 -1.359,0.6760000000000006 a13.79,13.79 0 0 0 -2.6740000000000004,1.745 c-1.214,0.91 -2.575,1.007 -3.96,1.689 c-1.783,0.8920000000000003 -3.132,0.7230000000000003 -3.579,2.732 c-0.15200000000000008,0.6830000000000006 0.8670000000000003,0.8160000000000003 1.6820000000000006,0.986 c1.176,0 1.7640000000000002,-0.15200000000000008 2.94,-0.15200000000000008 a9.708,9.708 0 0 0 3.295,-0.91 C111.29999987792968,21.765000488281252 111.4279998779297,21.518000488281253 113.15299987792969,20.85500048828125 z" fill="#ffffff" fill-rule="evenodd" fill-opacity="1"/>
      <path id="Trazado_3" data-name="Trazado 3" d="M100.74599822998047,100.8890029296875 V97.6030029296875 q-71.177,0.281 -100.746,1.538 C32.06999822998047,100.3580029296875 66.33699822998047,100.6500029296875 100.74599822998047,100.8890029296875 z" fill="#ffffff" fill-rule="evenodd" fill-opacity="1"/>
      <path id="Trazado_4" data-name="Trazado 4" d="M109.32899426269532,97.6030029296875 v3.29 c34.41,-0.24000000000000007 74.21,-0.462 106.281,-1.6830000000000007 Q187.75099426269531,97.6960029296875 109.32899426269532,97.6030029296875 z" fill="#ffffff" fill-rule="evenodd" fill-opacity="1"/>
    </g>
    <g id="Grupo_3" data-name="Grupo 3" fill="#ffffff" fill-opacity="1">
      <path id="Trazado_5" data-name="Trazado 5" d="M85.9420009765625,65.57199783325194 h0.48100000000000015 c0.522,0 0.8140000000000003,-0.05500000000000002 1.336,-0.05500000000000002 c0.6460000000000004,0 0.784,0.8250000000000003 1.4300000000000002,0.8250000000000003 c0.6730000000000006,0 1.044,-0.014000000000000005 1.718,-0.014000000000000005 c0.811,0 0.907,-1.2 1.718,-1.2 c0.9480000000000003,0 1.49,0.8800000000000003 2.438,0.8800000000000003 a8.565,8.565 0 0 0 2.482,-0.44000000000000017 a6.427,6.427 0 0 0 1.387,-0.49400000000000016 a6.755,6.755 0 0 1 2.365,-0.6050000000000003 a21.409,21.409 0 0 1 2.825,-0.6250000000000003 c0.9390000000000003,-0.28 1.4300000000000002,-1.044 2.42,-1.044 c0.44000000000000017,0 0.559,-0.06300000000000004 1,-0.06300000000000004 c1.814,0 2.652,-1.044 4.329,-1.7000000000000002 c0.907,-0.35700000000000015 1.7000000000000002,-0.24700000000000008 2.309,-0.989 c0.49500000000000016,-0.6000000000000003 1.127,-0.467 1.828,-0.8380000000000003 c0.261,-0.138 0.261,-0.55 0.5630000000000003,-0.55 h2.076 a1.7680000000000002,1.7680000000000002 0 0 1 1.8,-1.3760000000000001 h1.127 c0.8250000000000003,0 0.8370000000000003,-0.8920000000000003 1.565,-1.263 c0.3300000000000002,-0.1650000000000001 0.552,-0.28900000000000015 0.8820000000000003,-0.468 c0.989,-0.55 1.361,-1.292 2.474,-1.54 c1.347,-0.28800000000000014 1.6900000000000006,-1.374 2.721,-2.267 c0.28800000000000014,-0.24800000000000008 0.6600000000000005,0.06900000000000005 0.989,-0.11000000000000004 c0.5770000000000003,-0.31600000000000017 0.6600000000000005,-1.1 1.3330000000000002,-1.1 c0.7150000000000003,-1.622 2.3850000000000002,-1.9180000000000001 3.6500000000000004,-3.1550000000000002 c1.1680000000000001,-1.141 1.278,-1.952 2.034,-3.409 a5.969,5.969 0 0 0 1.01,-3.012 V38.74699783325195 c0,-1.842 -0.6870000000000006,-2.9130000000000003 -1.7320000000000002,-4.412 c-0.17900000000000008,-0.261 -0.014000000000000005,-0.536 -0.1650000000000001,-0.8250000000000003 c-0.24800000000000008,-0.467 -0.6320000000000003,-0.6000000000000003 -0.989,-0.989 c-0.275,-0.30000000000000016 -0.17900000000000008,-0.7000000000000003 -0.453,-1 a5.152,5.152 0 0 0 -2.419,-1.32 a6.119,6.119 0 0 0 -3.209,-2.089 c-1.6500000000000006,-0.6250000000000003 -2.465,-1.78 -4.1690000000000005,-1.78 c-0.522,0 -0.8830000000000003,-0.6600000000000005 -1.4,-0.6600000000000005 c-0.8250000000000003,0 -0.9450000000000003,-0.275 -1.729,-0.49500000000000016 c-1.9100000000000001,-0.536 -2.2720000000000002,-0.935 -4.251,-0.935 c-0.44000000000000017,0 -1.155,-0.22000000000000008 -1.5950000000000002,-0.22000000000000008 a13.207,13.207 0 0 1 -1.45,-0.22000000000000008 c-1.553,-0.04100000000000002 -2.186,0.44000000000000017 -3.739,0.44000000000000017 c-1.7590000000000003,0 -2.75,0.3850000000000002 -4.509,0.3850000000000002 h-1.457 c-0.6000000000000003,0 -1.058,0.453 -1.6630000000000007,0.49500000000000016 c-1.9300000000000002,0.30700000000000016 -3.914,0.7240000000000003 -3.914,2.6550000000000002 c0,1.4 1.283,1.6550000000000002 2.684,1.6550000000000002 c1.6230000000000002,0 2.906,-0.275 4.529,-0.275 c2.75,0 4.164,0.11000000000000004 6.914,0.11000000000000004 c1.247,0 2.732,0.258 3.979,0.275 l2.88,0.275 c1.452,0 1.978,0.3850000000000002 3.43,0.3850000000000002 c1.059,0 1.525,0.7430000000000003 2.584,0.8800000000000003 c2.665,0.3410000000000003 5.716,2.773 7.134,5.045 c0.8710000000000003,1.4180000000000001 0.3300000000000002,1.54 0.44200000000000017,2.243 c-0.30800000000000016,0.137 -0.7520000000000003,0.1 -0.7520000000000003,0.4440000000000002 c0,0.256 0.42000000000000015,0.7410000000000003 0.42000000000000015,1 c0,0.4440000000000002 -0.7000000000000003,0.09400000000000008 -1.045,0.35000000000000014 a4.23,4.23 0 0 0 -1.044,1.155 c-1.6630000000000007,1.443 -2.372,2.7 -3.924,4.254 c-0.49500000000000016,0.49500000000000016 -1.12,0.1 -1.7240000000000002,0.43200000000000016 c-0.8,0.44000000000000017 -0.41400000000000015,1.107 -1.1,1.7120000000000002 a1.57,1.57 0 0 1 -0.8790000000000003,0.515 c-1.6900000000000006,0 -2.3,1.319 -3.7,2.254 c-0.49500000000000016,0.3290000000000002 -0.9630000000000003,0.3300000000000002 -1.458,0.6600000000000005 a17.33,17.33 0 0 0 -1.923,1.2770000000000001 a6.936,6.936 0 0 1 -2.488,1.044 c-1.2,0.454 -1.7000000000000002,1.3410000000000002 -2.968,1.429 c-0.91,0.06400000000000004 -1.556,0.07700000000000004 -2.009,0.7230000000000003 c-0.37100000000000016,0.12400000000000004 -0.55,0.4 -0.9490000000000003,0.4 h-1.346 c-0.7560000000000003,0 -1.031,0.6190000000000003 -1.7320000000000002,0.8800000000000003 c-1.154,0.44000000000000017 -1.6510000000000002,0.28200000000000014 -2.778,0.777 a7.786,7.786 0 0 1 -4.4190000000000005,0.99 c-0.3850000000000002,0 -1.814,0.11000000000000004 -2.2,0.11000000000000004 h-2.77 c-0.37100000000000016,0 -0.7340000000000003,-0.15200000000000008 -1.1,-0.17200000000000001 c-0.8280000000000003,-0.04800000000000002 -1.155,-0.44000000000000017 -1.155,-1.044 c0,-1.223 1.44,-1.223 2.141,-2.213 c0.8380000000000003,-0.3430000000000003 1.209,-1.21 1.828,-1.484 a8.923,8.923 0 0 0 1.1,-0.6000000000000003 a22.36,22.36 0 0 0 3.3810000000000002,-2.213 a7.785,7.785 0 0 1 4.577,-2.152 c0.6320000000000003,-0.6320000000000003 1.361,-0.4 2.089,-0.8790000000000003 a5.184,5.184 0 0 1 2.119,-1.121 a8.032,8.032 0 0 1 1.564,-0.43200000000000016 c0.30000000000000016,0 0.453,0.1640000000000001 0.7560000000000003,0.1640000000000001 h2.46 c0.7420000000000003,0 1.127,0.3850000000000002 1.8690000000000002,0.3850000000000002 a2.879,2.879 0 0 0 2.519,-2.922 a3.959,3.959 0 0 0 -4.127,-3.758 c-2.309,0 -3.213,1.3 -5.426,2.032 a28.121,28.121 0 0 0 -4.1530000000000005,1.843 a22.821,22.821 0 0 0 -2.982,2.144 a9.015,9.015 0 0 1 -2.117,0.99 c-0.31600000000000017,0.11000000000000004 -0.37100000000000016,0.42600000000000016 -0.6000000000000003,0.6730000000000006 c-1.086,1.141 -2.116,1.306 -3.422,2.144 a35.239,35.239 0 0 0 -3.849,2.175 c-1.58,0.989 -1.917,1.874 -3.4290000000000003,2.96 a14.962,14.962 0 0 0 -3.4290000000000003,3.211 c-0.8520000000000003,1.086 -1.883,1.6630000000000007 -1.883,3.051 a2.238,2.238 0 0 0 1.883,2.364 C84.84300097656251,64.01899783325194 84.8840009765625,65.57199783325194 85.9420009765625,65.57199783325194 z" fill="#ffffff" fill-rule="evenodd" fill-opacity="1"/>
      <path id="Trazado_6" data-name="Trazado 6" d="M58.351996520996096,83.19700259399414 q0.49000000000000016,-7.067 -8.676,-10.536 c5.936,-2.9 8.56,-4.427 8.21,-10.97 c-0.47200000000000014,-5.923 -5.022,-8.5 -14.015,-8.416 c-12.595,-0.30000000000000016 -23.026,6.3950000000000005 -22.506,11.253 q0.17200000000000001,3.477 4.7780000000000005,4.439 Q24.2129965209961,63.62500259399414 33.294996520996094,58.28000259399414 c6.832,-3.717 18.547,-3.826 19.463,3.7510000000000003 c0.7550000000000003,4.9190000000000005 -3.181,9.937 -9.344,10.97 q8.943,2.363 8.21,9.061 q-0.8400000000000003,9.819 -18.873,8.7 c5.59,-3.4210000000000003 5.393,-8.242 6.652,-14.72 a88.691,88.691 0 0 1 5,-17.9 Q36.7509965209961,61.180002593994146 33.72299652099609,77.18000259399415 q-1.227,9.461 -3.259,13.662 q-8.808,-0.256 -8.069,5.518 q2.132,-2.049 6.869,-1.7670000000000003 l14.579,-0.14200000000000004 C52.83299652099609,93.65600259399415 57.940996520996094,89.38900259399415 58.351996520996096,83.19700259399414 z" fill="#ffffff" fill-rule="evenodd" fill-opacity="1"/>
      <path id="Trazado_7" data-name="Trazado 7" d="M82.14800085449218,93.52100045776368 c-2.271,-2.629 -1.7690000000000001,-10.452 0.9640000000000003,-22.976 a15.283,15.283 0 0 0 -19.784,5.476 c-4.478,6.738 -4.756,18.12 2.387,18.09 q5.723,0.09000000000000007 10.038,-7.085 Q75.41500085449218,95.79500045776368 82.14800085449218,93.52100045776368 zm-5.885,-12.481 c-1.719,6.252 -5.476,9.511 -7.958,9.011 q-3.4,-2.067 -0.8320000000000003,-11.493 c2.273,-5.882 6.363,-8.678 10.564,-7.514 A62.94,62.94 0 0 1 76.26300085449219,81.04000045776368 z" fill="#ffffff" fill-rule="evenodd" fill-opacity="1"/>
      <path id="Trazado_8" data-name="Trazado 8" d="M102.13200378417969,71.70900308227539 c0,-2.5 -2.662,-2.8 -4.921,-1.109 c-4.145,3.2 -3.8680000000000003,8.291 -5.033,8.734 a44.727,44.727 0 0 0 0.777,-9.788 a17.115,17.115 0 0 0 -8.4,1.6640000000000001 a0.8590000000000003,0.8590000000000003 0 0 0 0.9430000000000003,1.428 q2.062,-1.039 2.2,0.3880000000000002 q-0.6420000000000003,9 -2.426,20.616 h5.2 c0.99,-9.346 3.1470000000000002,-14.7 6.627,-20.5 C99.5270037841797,74.85600308227538 102.13200378417969,73.5260030822754 102.13200378417969,71.70900308227539 z" fill="#ffffff" fill-rule="evenodd" fill-opacity="1"/>
      <path id="Trazado_9" data-name="Trazado 9" d="M121.05999365234379,69.01299923706054 c-4.886,0.5680000000000003 -6.836,2.9 -10.388,9.336 c-0.271,-3.13 1.181,-4.847 0.134,-9.244 q-6.549,0.30000000000000016 -7.836,2.082 q-0.133,1.6 0.905,0.905 q1.023,-1 1.5390000000000001,0.8660000000000003 c-2.857,21.892 -3.038,35.172 -7.164,40.616 a3.373,3.373 0 0 0 3.22,0.271 c6.711,-4.125 4.94,-9.426 6.892,-19.81 c10.178,1.124 17.113,-6.93 17.858,-16.681 C126.18399365234376,72.19099923706054 124.66899365234372,69.81699923706054 121.05999365234379,69.01299923706054 zm-12.34,23.5 q1.056,-12.359 5.88,-17.522 c2.854,-3.576 5.513,-2.555 5.939,2.047 C120.38599365234376,86.95599923706055 116.17399365234371,92.98199923706053 108.72099365234374,92.50899923706055 z" fill="#ffffff" fill-rule="evenodd" fill-opacity="1"/>
      <path id="Trazado_10" data-name="Trazado 10" d="M136.58300134277346,88.75899838256836 l-2.567,1.372 q-2.266,0.7640000000000003 -1.8930000000000002,-1.041 c0.9470000000000003,-10.116 2.6,-14.292 2.13,-20.361 c-0.04700000000000002,-1.006 -4.71,-0.013000000000000008 -4.981,0.8520000000000003 c-0.8520000000000003,7.785 -2.567,14.907 -2.52,22.4 q0.29300000000000015,2.3120000000000003 2.9939999999999998,1.479 a29.214,29.214 0 0 0 7.17,-3.088 C137.34000134277346,89.98899838256835 136.97600134277343,89.00299838256836 136.58300134277346,88.75899838256836 z" fill="#ffffff" fill-rule="evenodd" fill-opacity="1"/>
      <path id="Trazado_11" data-name="Trazado 11" d="M168.55500158691405,69.54799832153321 c-4.367,-0.18500000000000008 -9.008,7.146 -9.5,10.118 l-0.35100000000000015,0.008000000000000005 c0.35600000000000015,-6.943 -0.7120000000000003,-10.073 -3.083,-10.237 c-3.694,0.03200000000000002 -7.423,3.988 -9.887,10.285 l-0.267,-0.1 c0.466,-5.9 1.391,-9.329 0.9420000000000003,-9.952 c-2.189,-0.5 -5.332,0.171 -9.077,2.039 c-0.523,0.29000000000000015 -0.03900000000000002,1.637 0.5,1.487 c1.4220000000000002,-1.275 3,-1.326 2.871,0.22100000000000009 l-2.317,20.062 h5.189 q1.7000000000000002,-14.17 6.745,-18.814 c1.4,-1.846 3.744,-2.295 3.539,0.7460000000000003 l-2.1,18.233 h5.031 q1.891,-14.913 6.456,-18.874 c1.9,-2.321 4.166,-2.242 3.8,1.187 c-0.46,6.98 -2.106,12.158 -1.6,15.186 c0.3370000000000003,3.132 5,4.853 6.546,2.944 c-2.649,-1.3330000000000002 -1.049,-6.11 0.16700000000000012,-17.8 Q172.81500158691404,69.43999832153321 168.55500158691405,69.54799832153321 z" fill="#ffffff" fill-rule="evenodd" fill-opacity="1"/>
      <path id="Trazado_12" data-name="Trazado 12" d="M187.06900134277345,69.73599783325196 q3.482,0.9610000000000003 3.394,6 V80.47199783325195 q-1.5550000000000002,11.351 -6.915,11.361 q-3.285,0.17500000000000004 -4.034,-4.949 v-5.269 q1,-9.341 6.321,-12.378 c-6.488,0.3820000000000002 -11.574,5.769 -12.286,15.452 q0.41400000000000015,9.478 9.075,8.892 c6.626,-0.09300000000000008 11.972,-5.619 13.531,-13.76 C197.95300134277346,69.49899783325196 188.96300134277345,66.35299783325195 187.06900134277345,69.73599783325196 z" fill="#ffffff" fill-rule="evenodd" fill-opacity="1"/>
      <path id="Trazado_13" data-name="Trazado 13" d="M51.531999755859374,105.15500875854491 a2.11,2.11 0 0 0 -0.6700000000000006,-0.09100000000000008 h-1.3 l-0.6330000000000003,5 h1.436 a2.116,2.116 0 0 0 0.6740000000000006,-0.10600000000000002 a1.466,1.466 0 0 0 0.6420000000000003,-0.41700000000000015 a1.5910000000000002,1.5910000000000002 0 0 0 0.36600000000000016,-0.8740000000000003 a1.206,1.206 0 0 0 -0.17200000000000001,-0.8580000000000003 a0.8880000000000003,0.8880000000000003 0 0 0 -0.6760000000000006,-0.37100000000000016 l0,-0.014000000000000005 a1.181,1.181 0 0 0 0.6510000000000004,-0.37300000000000016 a1.241,1.241 0 0 0 0.28600000000000014,-0.6650000000000005 a1.326,1.326 0 0 0 -0.11500000000000005,-0.8440000000000003 A0.8710000000000003,0.8710000000000003 0 0 0 51.531999755859374,105.15500875854491 zm0.014000000000000005,2.926 a0.98,0.98 0 0 1 0.08600000000000005,0.6000000000000003 a1.123,1.123 0 0 1 -0.129,0.406 a0.97,0.97 0 0 1 -0.38000000000000017,0.3840000000000002 a1.52,1.52 0 0 1 -0.7560000000000003,0.17 h-0.9600000000000003 l0.252,-1.992 h1.023 a1.208,1.208 0 0 1 0.5,0.1 A0.7620000000000003,0.7620000000000003 0 0 1 51.545999755859384,108.08100875854493 zm0.17900000000000008,-1.7000000000000002 a0.9400000000000003,0.9400000000000003 0 0 1 -0.12000000000000002,0.35600000000000015 a0.8840000000000003,0.8840000000000003 0 0 1 -0.3480000000000003,0.3360000000000003 a1.3860000000000001,1.3860000000000001 0 0 1 -0.6740000000000006,0.14900000000000008 h-0.8710000000000003 l0.22000000000000008,-1.738 h0.927 a1.026,1.026 0 0 1 0.6670000000000005,0.18600000000000008 A0.7470000000000003,0.7470000000000003 0 0 1 51.724999755859386,106.38300875854492 z" fill="#ffffff" fill-rule="evenodd" fill-opacity="1"/>
      <path id="Trazado_14" data-name="Trazado 14" d="M57.23599859619139,105.06500167846679 l-2.6,5 h0.43800000000000017 l0.6760000000000006,-1.327 h2.382 l0.3210000000000002,1.327 h0.47000000000000014 l-1.2610000000000001,-5 zm-1.262,3.248 l1.395,-2.74 l0.6700000000000006,2.74 z" fill="#ffffff" fill-rule="evenodd" fill-opacity="1"/>
      <path id="Trazado_15" data-name="Trazado 15" d="M64.59200286865234,105.22700875854491 a1.625,1.625 0 0 0 -0.515,-0.14300000000000004 a3.1,3.1 0 0 0 -0.4,-0.02100000000000001 h-1.182 l-0.6320000000000003,5 h0.41900000000000015 l0.30000000000000016,-2.372 h0.782 l0.9640000000000003,2.372 h0.47700000000000015 l-1.006,-2.4 a1.9,1.9 0 0 0 0.538,-0.15200000000000008 a1.3,1.3 0 0 0 0.49300000000000016,-0.3910000000000002 a1.514,1.514 0 0 0 0.28200000000000014,-0.7410000000000003 a1.251,1.251 0 0 0 -0.1,-0.7590000000000003 A0.915,0.915 0 0 0 64.59200286865234,105.22700875854491 zm0.1,1.149 a1.059,1.059 0 0 1 -0.126,0.3850000000000002 a0.916,0.916 0 0 1 -0.35600000000000015,0.35200000000000015 a1.393,1.393 0 0 1 -0.6860000000000006,0.15400000000000008 h-0.8900000000000003 l0.2250000000000001,-1.78 h0.8900000000000003 a1.173,1.173 0 0 1 0.6470000000000004,0.15400000000000008 a0.6330000000000003,0.6330000000000003 0 0 1 0.268,0.35100000000000015 A0.918,0.918 0 0 1 64.69800286865234,106.37600875854491 z" fill="#ffffff" fill-rule="evenodd" fill-opacity="1"/>
      <path id="Trazado_16" data-name="Trazado 16" d="M71.29499938964844,109.44000167846679 h-0.013000000000000008 l-2.186,-4.377 h-0.539 l-0.6320000000000003,5 h0.41900000000000015 l0.554,-4.377 h0.013000000000000008 l2.186,4.377 h0.54 l0.6320000000000003,-5 h-0.41900000000000015 z" fill="#ffffff" fill-rule="evenodd" fill-opacity="1"/>
      <path id="Trazado_17" data-name="Trazado 17" d="M75.1550047607422,110.06500167846679 h0.41900000000000015 l0.6320000000000003,-5 h-0.41900000000000015 z" fill="#ffffff" fill-rule="evenodd" fill-opacity="1"/>
      <path id="Trazado_18" data-name="Trazado 18" d="M79.91499548339843,106.4380016784668 a2.27,2.27 0 0 1 0.7560000000000003,-0.785 a2,2 0 0 1 1.054,-0.30000000000000016 a1.318,1.318 0 0 1 0.6480000000000004,0.1640000000000001 a1.147,1.147 0 0 1 0.47400000000000014,0.514 l0.3830000000000002,-0.31800000000000017 a1.5,1.5 0 0 0 -0.6180000000000003,-0.6000000000000003 a1.81,1.81 0 0 0 -0.8330000000000003,-0.18300000000000008 a2.454,2.454 0 0 0 -1.256,0.3420000000000003 a2.738,2.738 0 0 0 -0.931,0.925 a3.3770000000000002,3.3770000000000002 0 0 0 -0.47000000000000014,1.359 a2.8890000000000002,2.8890000000000002 0 0 0 0.126,1.359 a1.9,1.9 0 0 0 0.7000000000000003,0.925 a2.025,2.025 0 0 0 1.169,0.3420000000000003 a2.1470000000000002,2.1470000000000002 0 0 0 0.9510000000000003,-0.21200000000000008 a2.4,2.4 0 0 0 0.8360000000000003,-0.7000000000000003 l-0.30700000000000016,-0.28900000000000015 a1.9,1.9 0 0 1 -0.6880000000000006,0.5900000000000003 a1.6660000000000006,1.6660000000000006 0 0 1 -0.7380000000000003,0.18700000000000008 a1.6280000000000001,1.6280000000000001 0 0 1 -0.979,-0.30000000000000016 a1.572,1.572 0 0 1 -0.557,-0.785 a2.525,2.525 0 0 1 -0.09100000000000008,-1.124 A2.941,2.941 0 0 1 79.91499548339843,106.4380016784668 z" fill="#ffffff" fill-rule="evenodd" fill-opacity="1"/>
      <path id="Trazado_19" data-name="Trazado 19" d="M85.85799340820313,110.06500167846679 H88.71199340820311 l0.05300000000000003,-0.42300000000000015 h-2.434 l0.24700000000000008,-1.9500000000000002 h2.186 l0.05300000000000003,-0.42300000000000015 h-2.186 l0.2250000000000001,-1.78 h2.332 l0.05300000000000003,-0.42300000000000015 h-2.75 z" fill="#ffffff" fill-rule="evenodd" fill-opacity="1"/>
      <path id="Trazado_20" data-name="Trazado 20" d="M93.04199670410156,105.59000167846679 a1.212,1.212 0 0 1 0.7380000000000003,-0.23500000000000001 a0.8470000000000003,0.8470000000000003 0 0 1 0.8140000000000003,0.49500000000000016 l0.4,-0.28900000000000015 a1.1680000000000001,1.1680000000000001 0 0 0 -0.48300000000000015,-0.48100000000000015 a1.4220000000000002,1.4220000000000002 0 0 0 -0.6640000000000005,-0.14700000000000008 a1.7610000000000001,1.7610000000000001 0 0 0 -0.7300000000000003,0.15700000000000008 a1.506,1.506 0 0 0 -0.8850000000000003,1.212 a1.284,1.284 0 0 0 0.133,0.8530000000000003 a1.2,1.2 0 0 0 0.52,0.43800000000000017 q0.3250000000000002,0.14400000000000004 0.6540000000000004,0.259 a1.4140000000000001,1.4140000000000001 0 0 1 0.535,0.31700000000000017 a0.7140000000000003,0.7140000000000003 0 0 1 0.1630000000000001,0.6120000000000003 a1.1,1.1 0 0 1 -0.3840000000000002,0.7160000000000003 a1.165,1.165 0 0 1 -0.7510000000000003,0.266 a1.04,1.04 0 0 1 -0.5780000000000003,-0.15800000000000008 a0.992,0.992 0 0 1 -0.37200000000000016,-0.47100000000000014 l-0.43700000000000017,0.30000000000000016 a1.308,1.308 0 0 0 0.5660000000000003,0.5810000000000003 a1.717,1.717 0 0 0 0.8,0.17300000000000001 a1.621,1.621 0 0 0 0.7080000000000003,-0.1630000000000001 a1.5390000000000001,1.5390000000000001 0 0 0 0.5710000000000003,-0.47600000000000015 a1.6280000000000001,1.6280000000000001 0 0 0 0.30000000000000016,-0.7660000000000003 a1.219,1.219 0 0 0 -0.136,-0.8350000000000003 a1.1600000000000001,1.1600000000000001 0 0 0 -0.522,-0.41600000000000015 q-0.3260000000000002,-0.135 -0.6550000000000004,-0.24700000000000008 a1.312,1.312 0 0 1 -0.534,-0.3260000000000002 a0.791,0.791 0 0 1 -0.15800000000000008,-0.6550000000000004 A1.03,1.03 0 0 1 93.04199670410156,105.59000167846679 z" fill="#ffffff" fill-rule="evenodd" fill-opacity="1"/>
      <path id="Trazado_21" data-name="Trazado 21" d="M116.37299816894529,105.17300167846679 a1.8,1.8 0 0 0 -0.6440000000000003,-0.11000000000000004 h-1.3 l-0.6320000000000003,5 h0.41900000000000015 l0.30000000000000016,-2.372 h0.973 a1.7080000000000002,1.7080000000000002 0 0 0 0.6820000000000006,-0.138 a1.3760000000000001,1.3760000000000001 0 0 0 0.549,-0.42800000000000016 a1.526,1.526 0 0 0 0.28700000000000014,-0.7400000000000003 a1.219,1.219 0 0 0 -0.132,-0.807 A0.993,0.993 0 0 0 116.37299816894529,105.17300167846679 zm-0.1660000000000001,1.9 a1.184,1.184 0 0 1 -0.6800000000000006,0.2 h-0.9540000000000003 l0.2250000000000001,-1.78 h0.928 a1.123,1.123 0 0 1 0.457,0.09000000000000007 a0.6870000000000006,0.6870000000000006 0 0 1 0.3280000000000002,0.28900000000000015 a0.8290000000000003,0.8290000000000003 0 0 1 0.08100000000000004,0.518 A0.9460000000000003,0.9460000000000003 0 0 1 116.20699816894529,107.07000167846681 z" fill="#ffffff" fill-rule="evenodd" fill-opacity="1"/>
      <path id="Trazado_22" data-name="Trazado 22" d="M119.73999255371092,110.06500167846679 h0.41900000000000015 l0.6320000000000003,-5 h-0.41900000000000015 z" fill="#ffffff" fill-rule="evenodd" fill-opacity="1"/>
      <path id="Trazado_23" data-name="Trazado 23" d="M127.0520007324219,109.44000167846679 h-0.013000000000000008 l-2.186,-4.377 h-0.539 l-0.6320000000000003,5 h0.41900000000000015 l0.554,-4.377 h0.013000000000000008 l2.186,4.377 h0.54 l0.6320000000000003,-5 h-0.41900000000000015 z" fill="#ffffff" fill-rule="evenodd" fill-opacity="1"/>
      <path id="Trazado_24" data-name="Trazado 24" d="M130.95099645996095,105.4860016784668 H132.48699645996095 l-0.5780000000000003,4.575 h0.41900000000000015 l0.5790000000000003,-4.575 h1.538 l0.05300000000000003,-0.42300000000000015 h-3.494 z" fill="#ffffff" fill-rule="evenodd" fill-opacity="1"/>
      <path id="Trazado_25" data-name="Trazado 25" d="M139.8850015869141,108.02800167846681 a3.406,3.406 0 0 1 -0.18000000000000008,0.7670000000000003 a1.661,1.661 0 0 1 -0.44000000000000017,0.6780000000000006 a1.2,1.2 0 0 1 -0.8190000000000003,0.29200000000000015 a0.9400000000000003,0.9400000000000003 0 0 1 -0.7460000000000003,-0.29200000000000015 a1.232,1.232 0 0 1 -0.269,-0.6780000000000006 a3.182,3.182 0 0 1 0.014000000000000005,-0.7670000000000003 l0.37500000000000017,-2.965 h-0.41800000000000015 l-0.3900000000000002,3.085 a2.938,2.938 0 0 0 0.02600000000000002,1 a1.3210000000000002,1.3210000000000002 0 0 0 0.42200000000000015,0.7450000000000003 a1.4060000000000001,1.4060000000000001 0 0 0 0.933,0.29200000000000015 a1.73,1.73 0 0 0 1.007,-0.29200000000000015 a1.866,1.866 0 0 0 0.6110000000000003,-0.7450000000000003 a3.305,3.305 0 0 0 0.279,-1 l0.3900000000000002,-3.085 H140.26100158691406 z" fill="#ffffff" fill-rule="evenodd" fill-opacity="1"/>
      <path id="Trazado_26" data-name="Trazado 26" d="M146.20700109863282,105.22700875854491 a1.6280000000000001,1.6280000000000001 0 0 0 -0.515,-0.14300000000000004 a3.088,3.088 0 0 0 -0.4,-0.02100000000000001 h-1.182 l-0.6320000000000003,5 h0.41900000000000015 l0.30000000000000016,-2.372 h0.782 l0.9650000000000003,2.372 h0.47600000000000015 l-1,-2.4 a1.8900000000000001,1.8900000000000001 0 0 0 0.538,-0.15200000000000008 a1.3,1.3 0 0 0 0.49300000000000016,-0.3910000000000002 a1.5150000000000001,1.5150000000000001 0 0 0 0.281,-0.7410000000000003 a1.248,1.248 0 0 0 -0.1,-0.7590000000000003 A0.918,0.918 0 0 0 146.20700109863282,105.22700875854491 zm0.1,1.149 a1.059,1.059 0 0 1 -0.126,0.3850000000000002 a0.916,0.916 0 0 1 -0.35600000000000015,0.35200000000000015 a1.393,1.393 0 0 1 -0.6860000000000006,0.15400000000000008 h-0.8900000000000003 l0.2250000000000001,-1.78 h0.8900000000000003 a1.174,1.174 0 0 1 0.6470000000000004,0.15400000000000008 a0.6340000000000003,0.6340000000000003 0 0 1 0.267,0.35100000000000015 A0.91,0.91 0 0 1 146.31000109863282,106.37600875854491 z" fill="#ffffff" fill-rule="evenodd" fill-opacity="1"/>
      <path id="Trazado_27" data-name="Trazado 27" d="M151.54600329589846,105.06500167846679 l-2.6,5 h0.43800000000000017 l0.6760000000000006,-1.327 h2.382 l0.3210000000000002,1.327 h0.47000000000000014 l-1.2610000000000001,-5 zm-1.262,3.248 l1.3940000000000001,-2.74 l0.6700000000000006,2.74 z" fill="#ffffff" fill-rule="evenodd" fill-opacity="1"/>
      <path id="Trazado_28" data-name="Trazado 28" d="M157.3070056152344,105.59000167846679 a1.212,1.212 0 0 1 0.7380000000000003,-0.23500000000000001 a0.8470000000000003,0.8470000000000003 0 0 1 0.8140000000000003,0.49500000000000016 l0.4,-0.28900000000000015 a1.1680000000000001,1.1680000000000001 0 0 0 -0.48300000000000015,-0.48100000000000015 a1.421,1.421 0 0 0 -0.6640000000000005,-0.14700000000000008 a1.7570000000000001,1.7570000000000001 0 0 0 -0.7300000000000003,0.15700000000000008 a1.505,1.505 0 0 0 -0.8860000000000003,1.212 a1.2810000000000001,1.2810000000000001 0 0 0 0.134,0.8530000000000003 a1.191,1.191 0 0 0 0.519,0.43800000000000017 q0.3250000000000002,0.14400000000000004 0.6540000000000004,0.259 a1.4140000000000001,1.4140000000000001 0 0 1 0.535,0.31700000000000017 a0.7130000000000003,0.7130000000000003 0 0 1 0.1630000000000001,0.6120000000000003 a1.1,1.1 0 0 1 -0.3840000000000002,0.7160000000000003 a1.1640000000000001,1.1640000000000001 0 0 1 -0.7510000000000003,0.266 a1.04,1.04 0 0 1 -0.5780000000000003,-0.15800000000000008 a1,1 0 0 1 -0.37200000000000016,-0.47100000000000014 l-0.43700000000000017,0.30000000000000016 a1.308,1.308 0 0 0 0.5660000000000003,0.5810000000000003 a1.717,1.717 0 0 0 0.8,0.17300000000000001 a1.622,1.622 0 0 0 0.7080000000000003,-0.1630000000000001 a1.542,1.542 0 0 0 0.5700000000000003,-0.47600000000000015 a1.629,1.629 0 0 0 0.30000000000000016,-0.7660000000000003 a1.216,1.216 0 0 0 -0.136,-0.8350000000000003 a1.157,1.157 0 0 0 -0.522,-0.41600000000000015 q-0.3260000000000002,-0.135 -0.6550000000000004,-0.24700000000000008 a1.312,1.312 0 0 1 -0.534,-0.3260000000000002 a0.791,0.791 0 0 1 -0.15800000000000008,-0.6550000000000004 A1.03,1.03 0 0 1 157.3070056152344,105.59000167846679 z" fill="#ffffff" fill-rule="evenodd" fill-opacity="1"/>
    </g>
  </g></g></svg>