<svg xmlns="http://www.w3.org/2000/svg" width="237" height="41" viewBox="0 0 237 41" fill="none"><path d="M42.1339 0.94751H3.94727V39.1342H42.1339V0.94751Z" fill="#2D2E83"></path><path d="M54.2153 0.94751H72.4559C76.6725 0.94751 79.7995 1.84769 81.9315 3.69544C84.0161 5.4958 85.1058 8.05421 85.1058 11.2759C85.1058 13.0763 84.8216 14.5924 84.3004 15.7768C83.7792 16.9613 83.1633 17.9562 82.4053 18.6669C81.6946 19.3776 80.9839 19.9461 80.2733 20.2304C79.5626 20.562 79.0888 20.7515 78.7572 20.8937V20.9884C79.3257 21.0832 79.9416 21.2253 80.6049 21.5096C81.2682 21.7938 81.8841 22.2676 82.4526 22.8835C83.0212 23.4994 83.495 24.3049 83.874 25.2998C84.253 26.2948 84.4425 27.5266 84.4425 29.0427C84.4425 31.2694 84.632 33.3541 84.9637 35.1544C85.2953 37.0022 85.8165 38.2814 86.5272 39.0868H79.3731C78.8519 38.2814 78.5677 37.3338 78.4729 36.3389C78.3781 35.344 78.3308 34.3964 78.3308 33.4488C78.3308 31.6958 78.236 30.1798 77.9991 28.9479C77.7622 27.6687 77.3832 26.6264 76.8147 25.7736C76.2461 24.9208 75.4881 24.3049 74.4931 23.9259C73.4982 23.5468 72.2664 23.3573 70.7029 23.3573H60.8483V39.0868H54.168V0.94751H54.2153ZM60.8956 18.3352H71.84C73.972 18.3352 75.5828 17.8141 76.7199 16.8191C77.8096 15.8242 78.3781 14.2607 78.3781 12.2235C78.3781 10.9917 78.1886 10.0441 77.857 9.23866C77.478 8.48062 77.0042 7.8647 76.3883 7.4383C75.7723 7.0119 75.0617 6.72763 74.2562 6.58549C73.4508 6.44336 72.6454 6.3486 71.7452 6.3486H60.8956V18.3352Z" fill="#2D2E83"></path><path d="M93.3017 26.9108C93.3017 28.0005 93.4438 28.9954 93.7755 29.9904C94.0597 30.9853 94.5335 31.8855 95.1494 32.5962C95.7653 33.3542 96.5234 33.9227 97.471 34.3965C98.4185 34.8229 99.5082 35.0598 100.787 35.0598C102.588 35.0598 104.009 34.6808 105.099 33.9227C106.189 33.1647 106.994 32.0276 107.515 30.4641H113.295C112.964 31.9802 112.442 33.3068 111.637 34.4913C110.832 35.6757 109.884 36.6707 108.794 37.4761C107.705 38.2815 106.425 38.8974 105.099 39.2765C103.725 39.7029 102.304 39.8924 100.787 39.8924C98.608 39.8924 96.6655 39.5133 95.0073 38.8027C93.3491 38.092 91.9277 37.0971 90.7433 35.8179C89.6062 34.5386 88.706 33.0226 88.1375 31.2222C87.5689 29.4218 87.2373 27.4793 87.2373 25.3473C87.2373 23.4048 87.569 21.5097 88.1849 19.7567C88.8008 18.0037 89.701 16.4402 90.838 15.1137C91.9751 13.7871 93.3964 12.6974 95.0547 11.9393C96.7129 11.1339 98.5606 10.7549 100.598 10.7549C102.777 10.7549 104.72 11.2287 106.473 12.1288C108.178 13.029 109.647 14.2609 110.784 15.7296C111.921 17.2457 112.774 18.9513 113.295 20.8938C113.816 22.8363 113.959 24.8262 113.674 26.9108H93.3017ZM107.515 22.8837C107.42 21.9361 107.231 20.9885 106.899 20.0884C106.568 19.1882 106.094 18.4301 105.525 17.7668C104.957 17.1035 104.246 16.5824 103.393 16.156C102.54 15.7296 101.64 15.5401 100.598 15.5401C99.5082 15.5401 98.5607 15.7296 97.6605 16.1086C96.8077 16.4876 96.0496 17.0088 95.4337 17.6721C94.8178 18.3354 94.2966 19.0934 93.9176 19.9936C93.5386 20.8938 93.3491 21.8413 93.3017 22.8837H107.515Z" fill="#2D2E83"></path><path d="M113.012 11.5129H119.645L126.657 32.7383H126.799L133.526 11.5129H139.828L129.926 39.1817H123.103L113.012 11.5129Z" fill="#2D2E83"></path><path d="M145.882 27.0529C145.882 28.1426 146.024 29.1375 146.356 30.1324C146.64 31.1274 147.114 32.0276 147.73 32.7382C148.345 33.4963 149.103 34.0648 150.051 34.5386C150.999 34.965 152.088 35.2019 153.367 35.2019C155.168 35.2019 156.589 34.8229 157.679 34.0648C158.769 33.3068 159.574 32.1697 160.095 30.6062H165.875C165.544 32.1223 165.022 33.4489 164.217 34.6334C163.412 35.8178 162.464 36.8127 161.374 37.6182C160.285 38.4236 159.005 39.0395 157.679 39.4185C156.305 39.8449 154.884 40.0345 153.367 40.0345C151.188 40.0345 149.246 39.6554 147.587 38.9448C145.929 38.2341 144.508 37.2391 143.323 35.9599C142.186 34.6807 141.286 33.1646 140.718 31.3643C140.149 29.5639 139.817 27.6214 139.817 25.4894C139.817 23.5469 140.149 21.6518 140.765 19.8988C141.381 18.1458 142.281 16.5823 143.418 15.2557C144.555 13.9292 145.977 12.8395 147.635 12.0814C149.293 11.276 151.141 10.897 153.178 10.897C155.357 10.897 157.3 11.3708 159.053 12.2709C160.806 13.1711 162.227 14.4029 163.364 15.8717C164.501 17.3878 165.354 19.0934 165.875 21.0359C166.396 22.9784 166.539 24.9682 166.254 27.0529H145.882ZM160.143 23.0257C160.048 22.0782 159.858 21.1306 159.527 20.2304C159.195 19.3303 158.721 18.5722 158.153 17.9089C157.584 17.2456 156.873 16.7245 156.021 16.2981C155.168 15.8717 154.268 15.6822 153.225 15.6822C152.136 15.6822 151.188 15.8717 150.288 16.2507C149.435 16.6297 148.677 17.1509 148.061 17.8142C147.445 18.4775 146.924 19.2355 146.545 20.1357C146.166 21.0359 145.977 21.9834 145.929 23.0257H160.143Z" fill="#2D2E83"></path><path d="M165.46 11.5128H170.056V3.22168H176.167V11.5128H181.663V16.0611H176.167V30.7957C176.167 31.459 176.215 31.9801 176.262 32.4539C176.31 32.9277 176.452 33.3067 176.641 33.6384C176.831 33.97 177.115 34.2069 177.541 34.349C177.92 34.4912 178.489 34.5859 179.152 34.5859C179.579 34.5859 180.005 34.5859 180.431 34.5386C180.858 34.5386 181.284 34.4438 181.711 34.349V39.0395C181.047 39.0868 180.384 39.1816 179.721 39.2764C179.057 39.3711 178.442 39.3711 177.731 39.3711C176.12 39.3711 174.841 39.229 173.846 38.8973C172.851 38.6131 172.093 38.1393 171.524 37.5707C170.956 37.0022 170.577 36.2442 170.387 35.344C170.198 34.4438 170.056 33.4489 170.056 32.3118V16.0611H165.46V11.5128Z" fill="#2D2E83"></path><path d="M196.207 39.8923C193.981 39.8923 192.038 39.5133 190.285 38.8026C188.532 38.0919 187.111 37.0496 185.879 35.7704C184.695 34.4912 183.794 32.9751 183.131 31.1747C182.515 29.3744 182.184 27.4319 182.184 25.2999C182.184 23.2152 182.515 21.2727 183.131 19.4724C183.747 17.672 184.647 16.1559 185.879 14.8767C187.064 13.5975 188.532 12.6026 190.285 11.8445C192.038 11.1338 193.981 10.7548 196.207 10.7548C198.434 10.7548 200.377 11.1338 202.13 11.8445C203.883 12.5552 205.304 13.5975 206.536 14.8767C207.72 16.1559 208.621 17.672 209.284 19.4724C209.9 21.2727 210.231 23.2152 210.231 25.2999C210.231 27.4319 209.9 29.4218 209.284 31.1747C208.668 32.9751 207.768 34.4912 206.536 35.7704C205.351 37.0496 203.883 38.0446 202.13 38.8026C200.424 39.5606 198.434 39.8923 196.207 39.8923ZM196.207 35.1071C197.581 35.1071 198.719 34.8228 199.761 34.2543C200.756 33.6858 201.561 32.9277 202.224 32.0275C202.888 31.08 203.362 30.0377 203.646 28.9006C203.93 27.7635 204.12 26.5791 204.12 25.3472C204.12 24.1628 203.977 22.9783 203.646 21.7939C203.362 20.6094 202.888 19.5671 202.224 18.6669C201.561 17.7668 200.756 17.0087 199.761 16.4402C198.766 15.8716 197.581 15.5874 196.207 15.5874C194.834 15.5874 193.696 15.8716 192.654 16.4402C191.659 17.0087 190.854 17.7668 190.19 18.6669C189.527 19.5671 189.053 20.6094 188.769 21.7939C188.485 22.9783 188.295 24.1628 188.295 25.3472C188.295 26.5791 188.437 27.7635 188.769 28.9006C189.053 30.0377 189.527 31.1274 190.19 32.0275C190.854 32.9751 191.659 33.6858 192.654 34.2543C193.696 34.8228 194.881 35.1071 196.207 35.1071ZM198.008 0H205.209L197.629 7.62786H193.175L198.008 0Z" fill="#2D2E83"></path><path d="M212.743 11.5129H218.523V15.5874L218.618 15.6822C219.565 14.1661 220.75 12.9343 222.266 12.0815C223.782 11.2287 225.44 10.7549 227.24 10.7549C230.273 10.7549 232.641 11.5603 234.394 13.1238C236.147 14.6873 237 17.0562 237 20.1831V39.1817H230.888V21.794C230.794 19.6146 230.367 18.0511 229.515 17.0562C228.662 16.0612 227.335 15.5874 225.487 15.5874C224.445 15.5874 223.545 15.777 222.692 16.156C221.887 16.535 221.176 17.0562 220.607 17.7195C220.039 18.3827 219.613 19.1408 219.281 20.041C218.949 20.9412 218.807 21.8887 218.807 22.8837V39.1817H212.695V11.5129H212.743Z" fill="#2D2E83"></path><mask id="mask0_569_1271" style="mask-type:luminance" maskUnits="userSpaceOnUse" x="1" y="4" width="44" height="30"><path d="M21.4775 5.35394C19.9614 5.87509 17.7821 7.24906 17.403 8.29137C15.4132 8.95467 14.2287 9.5232 12.5231 10.5181C11.5755 10.4708 10.628 10.4234 10.2016 10.4708C9.20663 10.5181 6.88511 11.5605 6.41133 12.4606C5.93755 13.2661 6.64822 13.4082 7.45364 14.0715C6.31657 15.0191 5.36901 15.5876 4.18456 16.4404C3.85291 16.6299 2.90535 16.7247 2.62108 17.0089C2.38419 17.2932 2.47895 18.146 2.38419 18.525C2.1473 19.1883 1.76828 19.4726 1.53139 20.1359C0.631208 22.789 1.76828 24.7315 4.70572 25.2527C5.70066 25.3948 6.79035 25.4422 7.78529 25.3001C10.4385 24.9684 13.518 24.2578 15.65 23.8314C17.1188 25.2527 17.8294 27.7637 20.7195 28.5692C23.8938 29.3746 26.168 26.5319 26.2153 24.3525C26.2627 22.7417 20.7195 22.031 21.9987 21.0834C25.0783 18.4776 30.1003 18.5724 32.9904 19.2831C33.322 19.2357 32.7535 20.1359 32.943 20.3728C33.8432 21.3677 35.4541 23.4997 36.4016 24.4473C36.7333 24.7789 37.1123 24.7315 37.4439 24.6842C37.823 24.6368 38.1072 24.6368 38.1072 25.1579C38.0125 28.0006 35.5962 29.8958 35.8805 32.7384C35.9752 33.8281 38.2494 34.1598 39.2917 33.8755C40.9973 33.4017 44.598 32.5489 44.8349 30.7959C45.3561 27.1004 41.7553 23.8787 40.9025 20.2306C40.6183 18.8567 40.4761 17.388 40.0497 16.1087C38.202 10.6129 36.6859 8.81253 31.2848 7.1543C31.3322 5.49607 29.0106 4.7854 26.1206 4.7854C24.6519 4.7854 22.9936 5.02229 21.4775 5.35394Z" fill="white"></path></mask><g mask="url(#mask0_569_1271)"><path d="M45.4031 4.7854H0.630859V34.2071H45.4031V4.7854Z" fill="url(#paint0_linear_569_1271)"></path></g><path fill-rule="evenodd" clip-rule="evenodd" d="M5.13203 15.6822C5.17941 16.4876 4.61087 17.7668 5.27416 18.0985C7.02715 18.9513 9.77507 17.1983 11.0543 18.667C12.4282 20.1831 12.144 22.7415 11.2912 24.7788C11.9545 24.684 12.6178 24.5419 13.281 24.3998C14.4655 21.9361 14.6076 18.6196 13.1389 16.4402C12.144 14.9242 9.44343 16.8667 7.7852 16.156C7.07453 15.8717 7.50093 14.6399 7.35879 13.8818C6.64812 14.4504 5.89008 15.0663 5.13203 15.6822Z" fill="white"></path><path fill-rule="evenodd" clip-rule="evenodd" d="M13.5176 9.75983C14.7968 9.00178 17.4973 9.57032 19.1556 10.4231C22.3299 12.1287 18.8713 13.787 19.2977 14.6871C20.8138 17.7193 24.8883 14.3555 24.225 19.5671C25.4568 19.2354 26.0254 19.2354 27.2572 18.9038C29.0576 17.1982 27.9205 13.2184 26.4518 11.0864C25.4568 9.61769 23.846 8.24373 21.9035 7.76995C21.0507 7.58044 21.4297 6.30123 20.4821 5.63794C19.4398 5.78007 17.7342 7.81733 17.2131 8.33849C15.2232 8.90702 13.8492 9.52294 13.5176 9.75983Z" fill="white"></path><path fill-rule="evenodd" clip-rule="evenodd" d="M40.5708 18.2407C38.6283 18.2881 36.8279 18.5724 37.8229 24.7315C38.5336 25.2527 38.2967 26.0581 38.0124 26.8635C39.1969 22.1257 40.3813 20.0885 41.6605 22.5047L40.5708 18.2407Z" fill="white"></path><path fill-rule="evenodd" clip-rule="evenodd" d="M7.64327 22.8362C8.25918 22.8362 8.82772 22.315 8.82772 21.6517C8.82772 21.0358 8.30656 20.4673 7.64327 20.4673C6.97998 20.4673 6.45882 20.9884 6.45882 21.6517C6.41144 22.315 6.97998 22.8362 7.64327 22.8362Z" fill="white"></path><path fill-rule="evenodd" clip-rule="evenodd" d="M40.4761 16.4876C40.7604 17.7194 41.0447 19.2355 41.2816 20.3726C42.0396 23.6417 44.8823 26.3422 45.2139 29.5166V30.701C45.2139 30.7484 45.2139 30.7958 45.2139 30.8431C45.0244 32.454 42.3239 33.3542 40.4761 33.828V33.4015C40.6656 33.3068 40.9025 33.2594 41.092 33.212C43.4136 32.454 44.4559 31.8381 44.6928 30.5115C45.0244 28.1426 42.9872 25.442 41.708 22.7415C41.3289 22.1256 40.9025 22.0308 40.4761 22.2677V21.4623C40.7604 21.4149 41.0447 21.5097 41.3289 21.8887C41.092 21.3675 40.9025 20.799 40.8078 20.2778C40.713 19.8041 40.6183 19.2355 40.5235 18.667V16.4876H40.4761ZM31.2374 6.11181C31.4743 6.39608 31.5691 6.72772 31.5691 7.10675C37.0649 8.81236 38.3441 10.6601 40.1919 15.7295C40.2866 15.9664 40.334 16.2033 40.4288 16.4876V18.7144C40.2392 17.672 40.0497 16.5824 39.7181 15.7769C37.8703 10.6127 36.4016 8.95449 31.19 7.34364V6.11181H31.2374ZM40.4761 33.8753V33.4489C38.3441 34.0175 36.1647 33.9701 36.2121 32.2171C36.2595 30.5115 37.8703 28.4269 38.3441 26.058C39.0548 24.2102 39.7655 22.7889 40.5235 22.3625V21.557C39.8128 21.7466 39.1495 23.2153 38.4389 25.5842C38.4389 25.442 38.4863 25.2525 38.4863 25.1104C38.5336 24.1155 37.3018 25.063 36.449 24.1155C35.5962 23.1679 34.1749 21.2728 33.322 20.3252C33.2273 20.2305 33.3694 19.9936 33.3694 19.7093C34.4591 19.8514 35.4541 20.5147 36.3069 21.5097C35.4067 20.0409 34.6013 19.5672 32.943 19.0934C32.4692 18.9513 31.9007 18.8565 31.2848 18.8091V19.2829C31.5217 19.2829 31.7112 19.3303 31.9007 19.3303C33.5589 19.5672 32.3745 20.0883 32.7061 20.42C33.6063 21.4623 35.2645 23.6891 36.4016 24.7314C37.1123 25.3947 37.9651 24.3997 37.9177 25.3947C37.7756 28.2847 35.4541 29.6587 35.7383 32.9278C35.8331 34.0648 37.8703 34.5386 39.8128 34.0648C40.0023 33.9701 40.2392 33.8753 40.4761 33.8753ZM24.6992 4.54834C27.2103 4.4062 30.2899 4.8326 31.2374 6.11181V7.34364C31.19 7.34364 31.1427 7.34364 31.0953 7.29626C31.19 5.40114 27.6367 4.87998 24.6992 5.02212V4.54834ZM31.2374 19.1881C29.7687 19.046 27.1629 18.9986 24.6992 19.8514V19.3777C25.5047 19.1408 26.4522 18.9513 27.3998 18.8091C29.058 17.0561 27.921 13.2185 26.4996 11.0865C26.0258 10.3758 25.4099 9.71254 24.6992 9.144V8.57547C25.7416 9.23876 26.5944 10.1389 27.1629 10.9917C28.4895 13.1238 29.4371 16.1559 28.0157 18.7617C29.1528 18.667 30.2425 18.667 31.2374 18.7617V19.1881ZM24.6992 22.6467C25.6942 23.0258 26.547 23.5469 26.547 24.305C26.4996 25.4894 25.8363 26.9108 24.6992 27.8583V27.2424C25.5047 26.4844 25.9785 25.3473 26.0258 24.3523C26.0258 23.8312 25.4573 23.4048 24.6992 23.0731V22.6467ZM20.53 5.54327C21.0985 5.30638 21.7618 5.11687 22.5199 4.87998C23.1358 4.73785 23.8938 4.59571 24.7466 4.54834V5.02212C23.8464 5.06949 23.041 5.16425 22.3777 5.35376C21.9987 5.44852 21.6197 5.54327 21.288 5.68541C21.6197 6.06443 21.3828 7.29626 22.2356 7.4384C23.1358 7.58053 23.9886 8.00693 24.794 8.52809V9.09663C23.9886 8.48071 23.041 7.95955 21.9987 7.72266C21.2407 7.53315 21.4775 6.53821 20.8616 5.82754C20.7669 5.82754 20.6721 5.87492 20.5774 5.9223V5.54327H20.53ZM24.6992 19.8514C23.8938 20.1357 23.041 20.5147 22.283 21.0359C21.5249 21.6044 23.1832 21.9834 24.6992 22.6467V23.0731C23.041 22.3625 20.6247 21.9361 22.1408 20.6095C22.7568 20.0883 23.6569 19.6619 24.6992 19.3303V19.8514ZM24.6992 27.9057C23.7043 28.7111 22.3777 29.1849 20.8616 28.8059C20.7669 28.7585 20.6247 28.7585 20.53 28.7111V28.19C20.6247 28.19 20.7669 28.2373 20.909 28.2847C22.4725 28.7111 23.7991 28.19 24.6992 27.2898V27.9057ZM20.53 8.14907L20.8616 8.10169L20.909 6.11181L20.53 7.15413V8.14907ZM19.4877 6.01705C19.7719 5.87492 20.151 5.68541 20.53 5.54327V5.96968C20.151 6.11181 19.8193 6.25394 19.4877 6.39608V6.01705ZM20.53 28.6637C20.151 28.569 19.8193 28.4269 19.4877 28.2373V27.6688C19.8193 27.8583 20.151 28.0005 20.53 28.1426V28.6637ZM20.53 7.15413V8.10169L20.151 8.19644L20.53 7.15413ZM19.4877 8.38596V7.48577L19.9614 6.49083L19.7246 8.2912L19.4877 8.38596ZM18.4927 6.68035C18.777 6.44346 19.1086 6.25394 19.4877 6.01705V6.39608C19.1086 6.58559 18.777 6.7751 18.4927 7.05937V6.68035ZM19.4877 28.2373C19.156 28.0478 18.8244 27.8109 18.4927 27.5741V27.0055C18.777 27.2424 19.1086 27.4793 19.4877 27.6688V28.2373ZM19.4877 7.53315V8.43333L19.0613 8.52809L19.4877 7.53315ZM18.4927 8.76498V8.14907L18.9191 7.34364L18.8718 8.67022L18.4927 8.76498ZM17.3557 8.05431C17.6399 7.53315 18.0189 7.10675 18.4927 6.68035V7.05937C18.0189 7.48577 17.6873 8.05431 17.3557 9.00187V8.05431ZM18.4927 27.6214C18.0663 27.2898 17.6873 26.8634 17.3557 26.4844V25.7737C17.6873 26.2001 18.0663 26.6265 18.4927 27.0529V27.6214ZM18.4927 8.14907L18.0663 8.95449L18.4927 8.81236V8.14907ZM17.3557 8.10169V9.00187C17.3557 9.04925 17.3557 9.09663 17.3083 9.144C17.2609 8.7176 17.024 9.144 17.1661 8.67022C15.4605 9.23876 14.2761 9.75992 12.76 10.7075C11.8124 10.7075 10.8175 10.5653 10.3911 10.6127C9.82255 10.6127 8.73286 10.9917 7.88005 11.4655V10.9444C8.68548 10.518 9.63304 10.1863 10.2016 10.1389C10.628 10.1389 11.6229 10.1863 12.5705 10.2337C14.2761 9.19138 15.3184 8.76498 17.3557 8.10169ZM17.3557 26.437V25.7263C16.7871 24.9683 16.4081 24.1628 15.9817 23.4995C15.4605 23.5943 14.7972 23.7364 14.0392 23.8786C15.0341 21.4623 15.1763 18.3353 13.7075 16.2507C12.7126 14.7346 9.96469 16.6771 8.35383 16.0138C7.69054 15.7769 7.97481 14.6399 7.92743 13.8818C9.30139 12.9342 9.82255 12.271 11.1965 11.3708C9.86993 12.0341 9.15926 12.5552 7.88005 13.408V16.1086C9.49091 16.8192 12.2388 14.8767 13.2338 16.3928C14.6551 18.5249 14.5604 21.6044 13.518 24.0207C11.6229 24.3523 8.78023 24.8261 8.06956 24.9683C8.02219 24.9683 7.97481 24.9683 7.88005 25.0156V25.442H7.97481C9.44353 25.2525 13.5654 24.4471 15.6974 23.9733C16.1712 24.7314 16.6924 25.6316 17.3557 26.437ZM7.88005 22.0308V21.4149C7.92743 21.4623 8.02219 21.6044 8.02219 21.6992C8.02219 21.8413 7.92743 21.9834 7.88005 22.0308ZM7.88005 25.442C6.45871 25.6316 5.55853 25.5842 4.61097 25.442C2.33682 25.063 1.105 23.6891 1.05762 21.8887V21.6044C1.05762 21.1306 1.15237 20.6095 1.34189 20.0409C1.5314 19.3777 1.9578 19.046 2.19469 18.3827C2.28945 18.0037 2.19469 17.1509 2.43158 16.8666C2.71585 16.535 3.66341 16.4876 3.99505 16.2507C5.22688 15.3979 5.93755 15.0189 7.07463 14.0713C5.93755 13.3133 5.79542 13.0764 6.2692 12.2236C6.50609 11.8446 7.122 11.3708 7.88005 10.9917V11.5129C7.31152 11.7972 6.83774 12.1762 6.64822 12.5078C6.2692 13.1711 6.79036 13.3606 7.45365 13.787C7.59578 13.6923 7.73792 13.5975 7.88005 13.5028V16.2033C7.31152 15.9664 7.50103 15.0663 7.50103 14.3556C6.12707 15.3505 4.84786 16.0138 3.52127 17.5299L3.80554 16.8192C3.42652 16.914 2.95274 17.0088 2.76323 17.2456C2.52634 17.5299 2.76323 18.1932 2.57371 18.667C2.43158 19.1408 2.05256 19.0934 1.57878 20.799C1.105 22.4098 1.86304 24.0681 3.4739 24.6366C5.46377 25.2999 7.16938 25.1104 7.88005 25.0156V25.442ZM7.88005 21.4149C7.7853 21.3202 7.69054 21.2728 7.54841 21.2728C7.31152 21.2728 7.07463 21.4623 7.07463 21.7466C7.07463 22.0308 7.26414 22.2203 7.54841 22.2203C7.69054 22.2203 7.7853 22.173 7.88005 22.0782V21.4149Z" fill="white"></path><path d="M17.3556 8.10169C18.1137 6.63297 19.5824 5.68541 22.5198 4.92737C25.4573 4.16932 31.7112 4.54834 31.6164 7.15413C37.1122 8.85974 38.3915 10.7075 40.2392 15.7769C40.6656 17.1035 40.9499 18.9986 41.2815 20.42C42.1343 24.1628 45.6877 27.1477 45.1665 30.8905C44.9296 32.6909 41.5184 33.5911 39.8128 34.0648C37.8229 34.5386 35.833 34.0648 35.7383 32.9278C35.454 29.6587 37.7755 28.2847 37.9177 25.3947C37.9177 24.3997 37.1122 25.3947 36.4016 24.7314C35.2645 23.6891 33.6063 21.4623 32.7061 20.42C32.3744 20.0883 33.5589 19.5672 31.9007 19.3303C30.1951 19.0934 25.6941 18.8565 22.3303 21.1306C21.0511 22.0782 26.5943 22.552 26.5469 24.3997C26.4996 26.6739 24.0833 29.7534 20.8616 28.8533C17.8768 28.0478 16.7397 25.6789 15.6974 24.0681C13.5654 24.5419 9.44348 25.2999 7.97476 25.5368C6.50604 25.7263 5.60586 25.6789 4.56355 25.4894C1.57873 24.9209 0.39428 22.7889 1.29446 19.9936C1.48397 19.3303 1.91038 18.9986 2.14727 18.3353C2.24202 17.9563 2.14727 17.1035 2.38416 16.8192C2.66843 16.4876 3.61599 16.4402 3.94763 16.2033C5.17946 15.3505 5.89013 14.9715 7.0272 14.0239C5.89013 13.2659 5.748 13.029 6.22178 12.1762C6.69556 11.3234 9.06446 10.1863 10.1068 10.1389C10.5332 10.1389 11.5281 10.1863 12.4757 10.2337C14.276 9.19139 15.3184 8.76499 17.3556 8.10169ZM20.7668 5.87493C21.3354 6.5856 21.0985 7.58053 21.9039 7.77005C23.8938 8.24383 25.4573 9.61779 26.4522 11.0865C27.8735 13.2185 29.0106 17.0561 27.3524 18.8091C25.2677 19.0934 23.2779 19.7093 22.1408 20.7042C19.8666 22.5994 26.0258 22.6467 25.9784 24.3997C25.8837 26.5791 23.8464 29.0902 20.8616 28.2847C17.9241 27.4793 16.8818 25.1104 15.8869 23.5469C15.3657 23.6417 14.7024 23.7838 13.9444 23.926C14.9393 21.5097 15.0815 18.3827 13.6127 16.2981C12.6178 14.782 9.86988 16.7245 8.25903 16.0612C7.59574 15.8243 7.88001 14.6872 7.83263 13.9292C9.20659 12.9816 9.72775 12.3183 11.1017 11.4182C9.58562 12.1288 8.92232 12.6974 7.35885 13.7871C6.69556 13.408 6.1744 13.1711 6.55342 12.5078C7.0272 11.655 9.30135 10.7075 10.2963 10.6601C10.7227 10.6127 11.7176 10.7549 12.6652 10.7549C14.1813 9.8073 15.4131 9.28614 17.0713 8.71761C16.9292 9.14401 17.1661 8.71761 17.2135 9.19139C17.9715 7.15413 18.5874 6.68035 20.7668 5.87493ZM21.1932 5.68541C21.5249 5.59066 21.9039 5.44852 22.2829 5.35377C25.1256 4.6431 31.19 4.83261 31.0479 7.29627C36.3068 8.90712 37.8229 10.5653 39.6707 15.7769C40.0971 17.0561 40.3813 18.9513 40.6656 20.3252C40.7604 20.8464 40.9499 21.3675 41.1868 21.9361C40.1918 20.6569 39.1969 22.173 38.2493 25.5368C38.2493 25.3947 38.2967 25.2052 38.2967 25.063C38.3441 24.0681 37.1122 25.063 36.2594 24.0681C35.4066 23.1205 33.9853 21.2254 33.1325 20.2778C33.0377 20.1831 33.1799 19.9462 33.1799 19.6619C34.2696 19.8041 35.2645 20.4674 36.1173 21.4623C35.2171 19.9936 34.4117 19.5198 32.7535 19.046C31.5216 18.667 29.7213 18.6196 27.8735 18.7617C29.2949 16.156 28.2999 13.1238 27.0207 10.9918C26.0732 9.52303 24.0833 7.91218 21.9987 7.48578C21.288 7.34364 21.5723 6.11182 21.1932 5.68541ZM41.6605 22.7415C42.9871 25.4894 45.0244 28.1426 44.6454 30.5115C44.4558 31.7907 43.3661 32.454 41.0446 33.212C38.7705 33.9701 36.1173 34.1596 36.1173 32.1697C36.1647 30.4641 37.7755 28.3795 38.2493 26.0106C39.4338 23.0731 40.6182 21.1306 41.6605 22.7415ZM13.518 24.0681C11.6229 24.3997 8.78019 24.8735 8.06952 25.0156C7.59574 25.063 5.70062 25.3947 3.47385 24.6366C1.863 24.1155 1.10495 22.4099 1.57873 20.7516C2.00513 19.046 2.38416 19.0934 2.57367 18.6196C2.76318 18.1458 2.57367 17.4825 2.76318 17.1983C2.95269 17.0088 3.3791 16.8666 3.8055 16.7719L3.47385 17.4352C4.80044 15.9191 6.07964 15.2558 7.4536 14.2608C7.4536 14.9715 7.31147 15.8717 7.88001 16.1086C9.49086 16.8192 12.2388 14.8767 13.2337 16.3928C14.6551 18.5249 14.5603 21.6518 13.518 24.0681ZM7.50098 21.2254C7.26409 21.2254 7.0272 21.4149 7.0272 21.6992C7.0272 21.9835 7.21672 22.173 7.50098 22.173C7.73787 22.173 7.97476 21.9835 7.97476 21.6992C8.02214 21.4623 7.78525 21.2254 7.50098 21.2254ZM20.1509 8.19645L20.909 6.06444L20.8142 8.05431L20.1509 8.19645ZM19.0138 8.48072L19.914 6.49084L19.6771 8.2912L19.0138 8.48072ZM18.0663 8.90712L18.9191 7.29627L18.8717 8.62285L18.0663 8.90712Z" stroke="white" stroke-width="0.2" stroke-miterlimit="3.864"></path><path fill-rule="evenodd" clip-rule="evenodd" d="M7.59588 22.315C7.92753 22.315 8.21179 22.0782 8.21179 21.7465C8.21179 21.4149 7.92753 21.178 7.59588 21.178C7.31161 21.178 7.02734 21.4149 7.02734 21.7465C7.02734 22.0308 7.31161 22.315 7.59588 22.315Z" fill="#2D2E83"></path><path fill-rule="evenodd" clip-rule="evenodd" d="M40.9977 30.5115V28.5216L41.8979 31.5064L41.4241 32.4066L40.9977 30.5115ZM40.9977 25.5368L43.414 31.3643L43.8877 30.4641L40.9977 25.063V25.5368ZM40.9977 25.063V25.5368L40.0975 23.4048L40.9977 25.063ZM40.9977 28.5216L39.6237 23.9733V24.068L40.9977 30.5115V28.5216ZM39.6237 32.4066V31.459L39.6711 32.3118L39.6237 32.4066ZM39.6237 23.9733V24.068L39.5763 23.7838L39.6237 23.9733ZM39.6237 31.459V32.4066L38.9604 33.3068L39.1026 24.7313L39.6237 31.459ZM22.4255 27.4793V26.6738L23.3731 27.574L22.4255 27.4793ZM22.4255 25.063V24.4945L24.9365 25.9632L23.7995 26.1053L22.4255 25.063ZM22.4255 23.5943L24.5575 24.7313L25.6472 24.4471L22.4255 23.2152V23.5943ZM29.5796 7.10672L30.006 6.34867L30.1481 7.20147C30.0534 7.20147 29.9112 7.1541 29.7691 7.1541C29.7217 7.1541 29.6743 7.10672 29.5796 7.10672ZM28.7742 7.01196L29.4374 5.82751L29.3901 7.05934C29.2006 7.05934 28.9637 7.05934 28.7742 7.01196ZM27.7318 7.01196L28.5373 5.638V7.05934C28.3004 7.01196 28.0161 7.01196 27.7318 7.01196ZM26.6895 7.01196L27.5897 5.44849L27.4476 7.01196C27.2107 7.01196 26.9738 7.01196 26.6895 7.01196ZM25.742 7.10672L26.5948 5.49586L26.4053 7.05934H26.3579C26.121 7.05934 25.9315 7.05934 25.742 7.10672ZM24.6523 7.20147L25.5051 5.54324L25.2682 7.10672C25.0313 7.1541 24.8418 7.1541 24.6523 7.20147ZM23.5152 7.34361L24.368 5.59062L24.1785 7.24885C23.9416 7.29623 23.7521 7.29623 23.5152 7.34361ZM22.5203 7.53312L23.3731 5.638L23.1835 7.39099C22.994 7.43836 22.7571 7.48574 22.5203 7.53312ZM36.8284 32.9751L38.8183 25.2525L37.6338 32.2171L36.8284 32.9751ZM36.781 22.3624L36.0704 22.6467L37.2548 23.1205L36.781 22.3624ZM36.2125 21.4623L35.0281 21.936L36.5441 21.8887L36.2125 21.4623ZM35.3597 20.5621L34.649 21.1306L35.8335 20.9885L35.3597 20.5621ZM34.4595 19.8988L33.891 20.3252L34.9807 20.2304L34.4595 19.8988ZM22.4255 23.2152V23.5943L20.6725 22.6467V22.552L22.4255 23.2152ZM22.4255 24.4945L20.6725 23.4521V23.689L22.4255 25.0156V24.4945ZM22.4255 26.6738V27.4793H22.236L20.6725 25.5841V24.9682L22.4255 26.6738ZM20.6725 27.8109L21.3832 28.0004L20.6725 27.0529V27.8109ZM21.6201 7.20147L22.1886 5.82751L22.1412 7.5805C21.9517 7.53312 21.7622 7.39099 21.6201 7.20147ZM7.73831 13.4554C9.68081 12.3183 12.7604 10.5653 11.1495 11.3707L10.1546 11.0865L10.581 11.7024C10.5336 11.7498 10.4389 11.7971 10.3915 11.8445L9.15965 11.4655L9.72819 12.2235C9.68081 12.2235 9.63343 12.2709 9.58605 12.3183L8.16471 11.7971L8.87538 12.7447C8.828 12.7447 8.73325 12.7921 8.63849 12.8868L7.64355 12.5552L8.02258 13.3132C7.88044 13.3606 7.83307 13.408 7.73831 13.4554ZM20.6725 22.552V22.6467L19.9145 22.2677L20.6725 22.552ZM20.6725 23.4048L19.0143 22.4098L20.6725 23.689V23.4048ZM20.6725 25.0156V25.5841L18.3036 22.7415L20.6725 25.0156ZM20.6725 27.0529V27.8109L20.2461 27.6688L17.5929 23.1679L20.6725 27.0529Z" fill="white"></path><path fill-rule="evenodd" clip-rule="evenodd" d="M20.1515 8.10171L20.8622 6.06445L20.8148 7.9122C20.6253 8.00695 20.3884 8.05433 20.1515 8.10171ZM19.0618 8.38598L19.9146 6.49086L19.7251 8.19646C19.5356 8.29122 19.2987 8.3386 19.0618 8.38598ZM18.209 8.62287L18.9197 7.29628L18.8723 8.43335C18.6354 8.52811 18.3985 8.57549 18.209 8.62287Z" fill="#EF7B13"></path><defs><linearGradient id="paint0_linear_569_1271" x1="1.22961" y1="19.5037" x2="44.9439" y2="19.5037" gradientUnits="userSpaceOnUse"><stop stop-color="#FDC503"></stop><stop offset="0.3652" stop-color="#EF7B13"></stop><stop offset="0.5195" stop-color="#E6332A"></stop><stop offset="0.7024" stop-color="#EF7B13"></stop><stop offset="1" stop-color="#FDC503"></stop></linearGradient></defs></svg>